<svg width="1440" height="1476" viewBox="0 0 1440 1476" fill="none" xmlns="http://www.w3.org/2000/svg">
<path d="M1391.73 197.353C1415.61 239.272 1394.76 293.23 1420.7 358.368C1428.04 376.811 1431.54 387.626 1441.83 404.597C1491.83 487.003 1564.6 532.937 1660.66 540.148C1727.27 545.148 1806.19 544.543 1835.24 478.249C1864.6 411.257 1848.97 326.214 1798.84 252.2C1743.64 170.713 1695.48 113.416 1606.24 56.3169C1558.49 25.7592 1463.06 -16.7495 1408.17 35.9451C1366.38 76.0625 1367.85 155.434 1391.73 197.353Z" fill="#1090CB"/>
<path d="M-384.591 0.394742C-438.452 -1.33151 -470.316 35.6128 -494.572 83.7334C-538.833 171.537 -553.967 276.494 -539.418 365.852C-524.868 455.21 -472.047 517.336 -419.364 554.563C-339.508 610.991 -318.59 612.6 -240.5 607.018C-183.503 602.944 -152.808 595.565 -86.8058 561.844C-20.8039 528.123 83.4386 465.113 57.4221 374.546C36.8276 302.855 -105.879 282.313 -105.879 282.313C-105.879 282.313 -172.389 274.713 -212.359 243.749C-253.729 211.701 -279.937 128.037 -279.937 128.037C-279.937 128.037 -320.164 2.45965 -384.591 0.394742Z" fill="#08D3BB"/>
<ellipse cx="1444.5" cy="1223.5" rx="248.5" ry="252.5" fill="url(#paint0_radial_0_3)"/>
<defs>
<radialGradient id="paint0_radial_0_3" cx="0" cy="0" r="1" gradientUnits="userSpaceOnUse" gradientTransform="translate(1444.5 1223.5) rotate(77.9425) scale(375.791 369.837)">
<stop stop-color="#DED9FF"/>
<stop offset="1" stop-color="white" stop-opacity="0"/>
</radialGradient>
</defs>
</svg>
