<svg width="91" height="90" viewBox="0 0 91 90" fill="none" xmlns="http://www.w3.org/2000/svg">
<rect width="91" height="90" rx="20" fill="#FFF2F2"/>
<path d="M45.5 25C34.1956 25 25 34.1965 25 45.5C25 56.8035 34.1956 66 45.5 66C56.8044 66 66 56.8035 66 45.5C66 34.1965 56.8044 25 45.5 25ZM45.5 64.2917C35.1382 64.2917 26.7083 55.8618 26.7083 45.5C26.7083 35.1382 35.1382 26.7083 45.5 26.7083C55.8618 26.7083 64.2917 35.1382 64.2917 45.5C64.2917 55.8618 55.8618 64.2917 45.5 64.2917Z" fill="#FF4E4E"/>
<path d="M41.2291 33.5416H36.1041C34.6911 33.5416 33.5416 34.6911 33.5416 36.1041V41.2291C33.5416 42.6422 34.6911 43.7916 36.1041 43.7916H41.2291C42.6422 43.7916 43.7916 42.6422 43.7916 41.2291V36.1041C43.7916 34.6911 42.6422 33.5416 41.2291 33.5416ZM42.0832 41.2291C42.0832 41.7004 41.6995 42.0833 41.229 42.0833H36.104C35.6336 42.0833 35.2499 41.7005 35.2499 41.2291V36.1041C35.2499 35.6329 35.6336 35.2499 36.104 35.2499H41.229C41.6995 35.2499 42.0832 35.6328 42.0832 36.1041V41.2291Z" fill="#FF4E4E"/>
<path d="M54.8959 33.5416H49.7709C48.3578 33.5416 47.2084 34.6911 47.2084 36.1041V41.2291C47.2084 42.6422 48.3578 43.7916 49.7709 43.7916H54.8959C56.3089 43.7916 57.4584 42.6422 57.4584 41.2291V36.1041C57.4584 34.6911 56.3089 33.5416 54.8959 33.5416ZM55.7501 41.2291C55.7501 41.7004 55.3663 42.0833 54.8959 42.0833H49.7709C49.3004 42.0833 48.9167 41.7005 48.9167 41.2291V36.1041C48.9167 35.6329 49.3004 35.2499 49.7709 35.2499H54.8959C55.3663 35.2499 55.7501 35.6328 55.7501 36.1041V41.2291Z" fill="#FF4E4E"/>
<path d="M41.2291 47.2083H36.1041C34.6911 47.2083 33.5416 48.3578 33.5416 49.7708V54.8958C33.5416 56.3089 34.6911 57.4583 36.1041 57.4583H41.2291C42.6422 57.4583 43.7916 56.3089 43.7916 54.8958V49.7708C43.7916 48.3578 42.6422 47.2083 41.2291 47.2083ZM42.0832 54.8958C42.0832 55.3671 41.6995 55.75 41.229 55.75H36.104C35.6336 55.75 35.2499 55.3672 35.2499 54.8958V49.7708C35.2499 49.2996 35.6336 48.9166 36.104 48.9166H41.229C41.6995 48.9166 42.0832 49.2995 42.0832 49.7708V54.8958Z" fill="#FF4E4E"/>
<path d="M54.8959 47.2083H49.7709C48.3578 47.2083 47.2084 48.3578 47.2084 49.7708V54.8958C47.2084 56.3089 48.3578 57.4583 49.7709 57.4583H54.8959C56.3089 57.4583 57.4584 56.3089 57.4584 54.8958V49.7708C57.4584 48.3578 56.3089 47.2083 54.8959 47.2083ZM55.7501 54.8958C55.7501 55.3671 55.3663 55.75 54.8959 55.75H49.7709C49.3004 55.75 48.9167 55.3672 48.9167 54.8958V49.7708C48.9167 49.2996 49.3004 48.9166 49.7709 48.9166H54.8959C55.3663 48.9166 55.7501 49.2995 55.7501 49.7708V54.8958Z" fill="#FF4E4E"/>
</svg>
